<svg width="181" height="87" viewBox="0 0 181 87" fill="none" xmlns="http://www.w3.org/2000/svg">
<path d="M8.37441 30.616C5.19574 30.616 2.95574 29.5067 1.65441 27.288C0.65174 25.56 0.42774 23.6933 0.982406 21.688C1.53707 19.6827 2.58241 18.2853 4.11841 17.496C4.84374 17.1333 5.63307 16.952 6.48641 16.952C8.74774 16.952 10.2944 17.8267 11.1264 19.576C11.4891 20.344 11.6704 21.08 11.6704 21.784C11.6704 22.488 11.5424 23.16 11.2864 23.8C10.7317 25.272 9.82507 26.008 8.56641 26.008C8.18241 26.008 7.90507 25.8587 7.73441 25.56L7.67041 25.4C8.58774 25.4 9.30241 24.7493 9.81441 23.448C10.0704 22.808 10.1984 22.168 10.1984 21.528C10.1984 20.8667 10.0597 20.1947 9.78241 19.512C9.24907 18.2107 8.12907 17.56 6.42241 17.56C4.71574 17.56 3.36107 18.392 2.35841 20.056C1.69707 21.1653 1.36641 22.3387 1.36641 23.576C1.36641 24.088 1.41974 24.6213 1.52641 25.176C1.97441 27.1813 3.12641 28.5467 4.98241 29.272C5.81441 29.592 6.84907 29.752 8.08641 29.752C9.32374 29.752 10.4757 29.464 11.5424 28.888C12.6304 28.3333 13.5051 27.5547 14.1664 26.552C14.8491 25.5493 15.4251 24.44 15.8944 23.224C16.3637 22.008 16.7477 20.6427 17.0464 19.128C17.3664 17.6133 17.6331 16.184 17.8464 14.84C18.4437 11.0213 18.9877 8.38667 19.4784 6.936C17.4944 6.78667 16.4597 6.712 16.3744 6.712C13.3451 6.712 11.2224 7.704 10.0064 9.688C9.45174 10.584 9.17441 11.5013 9.17441 12.44C9.17441 12.888 9.23841 13.336 9.36641 13.784C9.75041 15.064 10.4544 15.704 11.4784 15.704C11.4784 15.8747 11.3931 16.0347 11.2224 16.184C11.0517 16.3333 10.8384 16.408 10.5824 16.408C9.36641 16.408 8.50241 15.7787 7.99041 14.52C7.75574 13.9013 7.63841 13.2293 7.63841 12.504C7.63841 11.7787 7.85174 10.968 8.27841 10.072C9.21707 8.04533 10.9344 6.75467 13.4304 6.2C14.2197 6.02933 14.9344 5.944 15.5744 5.944C16.2357 5.944 17.6224 6.04 19.7344 6.232C20.6944 3.8 22.0704 2.584 23.8624 2.584C24.0117 2.584 24.1397 2.63733 24.2464 2.744C24.3744 2.82933 24.4704 2.95733 24.5344 3.128C22.9771 3.128 21.8677 4.19467 21.2064 6.328H21.8464C24.0437 6.328 25.5797 5.63467 26.4544 4.248C26.7957 3.71467 26.9664 3.256 26.9664 2.872C26.9664 1.86933 26.6144 1.368 25.9104 1.368C26.0384 0.984 26.2837 0.792 26.6464 0.792C27.2651 0.792 27.6811 1.176 27.8944 1.944C27.9584 2.22133 27.9904 2.488 27.9904 2.744C27.9904 3.512 27.6917 4.26933 27.0944 5.016C25.9637 6.38133 24.2037 7.064 21.8144 7.064H21.0144C20.6304 8.55733 20.3424 10.3813 20.1504 12.536C19.9584 14.6693 19.7451 16.44 19.5104 17.848C19.2971 19.2347 19.0411 20.5147 18.7424 21.688C18.4651 22.8613 18.0384 24.0133 17.4624 25.144C16.9077 26.2747 16.2464 27.224 15.4784 27.992C14.7104 28.7813 13.7184 29.4107 12.5024 29.88C11.2864 30.3707 9.91041 30.616 8.37441 30.616ZM23.1333 27C22.5359 27 22.2373 26.5413 22.2373 25.624C22.2373 25.1333 22.8346 21.56 24.0293 14.904C24.0933 14.456 24.2853 14.232 24.6053 14.232C24.9893 14.232 25.2773 14.5093 25.4693 15.064C25.5759 15.3627 25.6293 15.6933 25.6293 16.056C25.6293 16.3973 25.5866 16.7707 25.5013 17.176L24.9893 19.736H25.1813C27.1013 15.4267 28.9359 13.272 30.6853 13.272C31.3679 13.272 31.8906 13.4853 32.2533 13.912C32.6159 14.3173 32.7973 14.8827 32.7973 15.608C32.7973 16.3333 32.5093 17.9013 31.9333 20.312C31.3573 22.7227 31.0693 24.3973 31.0693 25.336C31.0693 26.7227 31.3253 27.416 31.8373 27.416C31.8373 27.5653 31.7413 27.7147 31.5493 27.864C31.3573 28.0133 31.1333 28.088 30.8773 28.088C29.6399 28.088 29.0213 27.1173 29.0213 25.176C29.0213 23.9813 29.3413 22.1787 29.9813 19.768C30.6426 17.336 30.9733 15.7893 30.9733 15.128C30.9733 14.4453 30.7066 14.104 30.1733 14.104C29.4053 14.104 28.4773 15.1067 27.3893 17.112C26.3226 19.1173 25.4586 21.0373 24.7973 22.872C24.1573 24.6853 23.7839 25.8267 23.6773 26.296C23.5919 26.7653 23.4106 27 23.1333 27ZM45.1971 15.32C45.7304 15.32 45.9971 15.768 45.9971 16.664C45.9971 17.304 45.6451 19.16 44.9411 22.232C44.2371 25.2827 43.6078 27.8107 43.0531 29.816C42.4984 31.8213 41.9758 33.304 41.4851 34.264C40.9944 35.2453 40.3971 36.2267 39.6931 37.208C39.0104 38.1893 38.2531 38.8613 37.4211 39.224C36.5891 39.5867 35.6291 39.768 34.5411 39.768C32.5144 39.768 31.5011 38.7333 31.5011 36.664C31.5011 35.448 31.9598 34.136 32.8771 32.728C34.1998 30.6587 35.9704 29.2933 38.1891 28.632C38.9784 28.3973 39.7998 28.28 40.6531 28.28C40.8024 28.28 40.8771 28.4293 40.8771 28.728C40.8771 29.0267 40.8024 29.176 40.6531 29.176C38.1358 29.176 36.0238 30.168 34.3171 32.152C33.0584 33.6453 32.4291 35.0853 32.4291 36.472C32.4291 37.8587 32.9624 38.6587 34.0291 38.872L34.5411 38.904C36.2904 38.904 37.6771 38.1787 38.7011 36.728C39.7464 35.256 40.5678 33.4 41.1651 31.16C41.7624 28.8987 42.5304 25.3573 43.4691 20.536H43.2131C40.9091 24.8667 39.0104 27.032 37.5171 27.032C35.8318 27.032 34.9891 25.7627 34.9891 23.224C34.9891 21.752 35.3731 20.1413 36.1411 18.392C37.2078 16.024 38.5624 14.4773 40.2051 13.752C40.7811 13.5173 41.3571 13.4 41.9331 13.4C42.5304 13.4 42.9998 13.5707 43.3411 13.912C43.6824 14.2533 43.8531 14.6373 43.8531 15.064C43.8531 15.256 43.7464 15.352 43.5331 15.352C43.3411 15.3307 43.2451 15.224 43.2451 15.032C43.2451 14.84 43.1384 14.6693 42.9251 14.52C42.7331 14.3493 42.4451 14.264 42.0611 14.264C40.7171 14.264 39.5011 15.4693 38.4131 17.88C37.3891 20.12 36.8771 22.2427 36.8771 24.248C36.8771 25.4853 37.1438 26.104 37.6771 26.104C38.3811 26.104 39.2984 25.272 40.4291 23.608C42.1358 21.0907 43.4691 18.6267 44.4291 16.216C44.6851 15.6187 44.9411 15.32 45.1971 15.32ZM48.595 27C47.9976 27 47.699 26.5413 47.699 25.624C47.699 25.1333 48.2963 21.56 49.491 14.904C49.5763 14.456 49.7683 14.232 50.067 14.232C50.451 14.232 50.739 14.5093 50.931 15.064C51.0376 15.3627 51.091 15.6933 51.091 16.056C51.091 16.3973 51.0483 16.7707 50.963 17.176L50.451 19.8H50.611C52.4456 15.5333 54.131 13.4 55.667 13.4C56.5203 13.4 57.0856 13.816 57.363 14.648C57.4696 14.968 57.523 15.3413 57.523 15.768C57.523 16.1733 57.4056 16.6213 57.171 17.112C56.7656 17.944 56.1576 18.36 55.347 18.36C55.1763 18.36 55.0376 18.3173 54.931 18.232C54.8456 18.1467 54.7923 18.0293 54.771 17.88C54.9416 17.88 55.1656 17.5707 55.443 16.952C55.7203 16.312 55.8803 15.7253 55.923 15.192C55.9656 14.6587 55.7843 14.3493 55.379 14.264C54.6323 14.264 53.747 15.2347 52.723 17.176C51.699 19.1173 50.8776 20.9733 50.259 22.744C49.6403 24.5147 49.2776 25.6667 49.171 26.2C49.0643 26.7333 48.8723 27 48.595 27ZM62.7795 7.832C63.2701 7.832 63.5155 8.16267 63.5155 8.824C63.5155 9.48533 63.1955 10.0187 62.5555 10.424C62.2355 10.6373 61.9581 10.744 61.7235 10.744C61.3821 10.744 61.1795 10.6373 61.1155 10.424L61.0835 10.328C61.2755 10.328 61.4141 10.1253 61.4995 9.72C61.5848 9.29333 61.7128 8.87733 61.8835 8.472C62.0755 8.04533 62.3741 7.832 62.7795 7.832ZM60.7315 26.232C61.2861 26.232 62.0648 25.496 63.0675 24.024C64.0701 22.552 64.9341 21.08 65.6595 19.608L66.7475 17.4H67.6115C67.4835 17.656 67.3128 18.008 67.0995 18.456C66.9075 18.8827 66.5128 19.6613 65.9155 20.792C65.3181 21.9013 64.7421 22.8827 64.1875 23.736C63.6541 24.5893 63.0461 25.368 62.3635 26.072C61.7021 26.7547 61.1261 27.096 60.6355 27.096C59.0568 27.096 58.2675 26.072 58.2675 24.024C58.2675 22.488 58.7048 19.992 59.5795 16.536C59.6648 16.1733 59.7288 15.896 59.7715 15.704C59.8355 15.512 59.8995 15.2667 59.9635 14.968C60.0275 14.648 60.0915 14.36 60.1555 14.104C60.2621 13.656 60.4541 13.432 60.7315 13.432C61.1155 13.432 61.3928 13.7093 61.5635 14.264C61.6488 14.52 61.6915 14.8293 61.6915 15.192C61.6915 15.5547 61.6488 15.9387 61.5635 16.344C61.4781 16.728 61.3395 17.304 61.1475 18.072C60.9555 18.84 60.8061 19.4693 60.6995 19.96C60.5928 20.4507 60.4755 21.048 60.3475 21.752C60.1128 22.9253 59.9955 23.9707 59.9955 24.888C59.9955 25.784 60.2408 26.232 60.7315 26.232ZM78.1232 9.048C77.5046 11.288 77.0139 13.1547 76.6512 14.648C76.3099 16.12 75.9259 17.8373 75.4992 19.8C75.0939 21.7413 74.8912 23.2987 74.8912 24.472C74.8912 25.6453 75.1579 26.232 75.6912 26.232C76.2672 26.232 77.0566 25.496 78.0592 24.024C79.0832 22.552 79.9579 21.08 80.6832 19.608L81.7392 17.4H82.6032C82.4752 17.656 82.3046 18.008 82.0912 18.456C81.8992 18.8827 81.5046 19.6613 80.9072 20.792C80.3099 21.9013 79.7339 22.8827 79.1792 23.736C78.6459 24.5893 78.0379 25.368 77.3552 26.072C76.6726 26.7547 76.0859 27.096 75.5952 27.096C74.0592 27.096 73.2912 25.9653 73.2912 23.704C73.2912 22.872 73.4086 21.784 73.6432 20.44H73.3872C71.0192 24.8347 69.0992 27.032 67.6272 27.032C65.9419 27.032 65.0992 25.7627 65.0992 23.224C65.0992 21.752 65.4832 20.1413 66.2512 18.392C67.3179 16.024 68.6726 14.4773 70.3152 13.752C70.8912 13.5173 71.4672 13.4 72.0432 13.4C72.6406 13.4 73.1099 13.5707 73.4512 13.912C73.7926 14.2533 73.9632 14.6373 73.9632 15.064C73.9632 15.256 73.8566 15.352 73.6432 15.352C73.4512 15.3307 73.3552 15.224 73.3552 15.032C73.3552 14.84 73.2486 14.6693 73.0352 14.52C72.8432 14.3493 72.5552 14.264 72.1712 14.264C70.8272 14.264 69.6112 15.4693 68.5232 17.88C67.4992 20.12 66.9872 22.2427 66.9872 24.248C66.9872 25.4853 67.2539 26.104 67.7872 26.104C68.5126 26.104 69.4192 25.3147 70.5072 23.736C71.5952 22.1573 72.5446 20.4613 73.3552 18.648C74.1872 16.8347 74.7739 15.1813 75.1152 13.688C75.4779 12.1733 76.0219 10.1147 76.7472 7.512C77.2166 5.82667 77.8352 4.984 78.6032 4.984C78.7739 4.984 78.9019 5.048 78.9872 5.176C79.0726 5.28267 79.1046 5.4 79.0832 5.528C79.0619 5.63467 78.7419 6.808 78.1232 9.048ZM108.237 4.728C108.535 4.728 108.738 4.856 108.845 5.112L108.877 5.272C107.298 5.272 106.285 6.86133 105.837 10.04C105.623 11.4693 105.442 13.048 105.293 14.776C105.143 16.4827 104.919 18.2 104.621 19.928C104.322 21.6347 103.895 23.2027 103.341 24.632C102.807 26.04 101.965 27.1813 100.813 28.056C99.6819 28.952 98.2846 29.4 96.6206 29.4C95.5326 29.4 94.5939 29.1867 93.8046 28.76C93.0366 28.3547 92.4819 27.8107 92.1406 27.128C91.7139 26.2533 91.5006 25.4213 91.5006 24.632C91.5006 23.8427 91.6179 23.096 91.8526 22.392C92.0873 21.6667 92.4073 20.9733 92.8126 20.312C93.2393 19.6293 93.7939 19.0853 94.4766 18.68C95.1593 18.2533 95.8846 18.04 96.6526 18.04C97.0579 18.04 97.3459 18.1893 97.5166 18.488L97.6126 18.648C95.8206 18.648 94.4019 19.4693 93.3566 21.112C92.6739 22.2 92.3326 23.32 92.3326 24.472C92.3326 24.8347 92.3753 25.208 92.4606 25.592C92.7593 27.1493 93.6126 28.088 95.0206 28.408C95.3619 28.4933 95.7139 28.536 96.0766 28.536C97.3566 28.536 98.4446 28.0987 99.3406 27.224C100.237 26.3493 100.919 25.2187 101.389 23.832C101.858 22.424 102.253 20.8773 102.573 19.192C102.893 17.4853 103.181 15.7893 103.437 14.104C103.693 12.3973 103.991 10.8507 104.333 9.464C104.674 8.056 105.165 6.91467 105.805 6.04C106.466 5.16533 107.277 4.728 108.237 4.728ZM114.989 0.631999C115.693 0.631999 116.045 1.048 116.045 1.88C116.045 2.52 115.703 3.11733 115.021 3.672C114.359 4.20533 113.303 4.472 111.853 4.472C110.423 4.472 108.621 4.12 106.445 3.416C104.29 2.712 102.573 2.36 101.293 2.36C98.5406 2.36 96.3966 3.45867 94.8606 5.656C93.8153 7.14933 93.2926 8.74933 93.2926 10.456C93.2926 12.888 94.1246 14.4987 95.7886 15.288C96.3646 15.5653 97.0153 15.704 97.7406 15.704C97.7406 15.8533 97.6553 16.0133 97.4846 16.184C97.3139 16.3547 97.1219 16.44 96.9086 16.44C94.6686 16.44 93.1113 15.512 92.2366 13.656C91.8313 12.7813 91.6286 11.864 91.6286 10.904C91.6286 9.944 91.8206 8.93067 92.2046 7.864C93.0366 5.56 94.5193 3.85333 96.6526 2.744C98.0393 2.04 99.5006 1.688 101.037 1.688C102.594 1.688 104.365 1.99733 106.349 2.616C108.333 3.21333 109.933 3.512 111.149 3.512C112.983 3.512 114.039 3.08533 114.317 2.232C114.466 1.82667 114.423 1.56 114.189 1.432C114.146 1.41067 114.114 1.4 114.093 1.4C114.221 0.888 114.519 0.631999 114.989 0.631999ZM111.501 27.032C109.816 27.032 108.973 25.7627 108.973 23.224C108.973 21.752 109.357 20.1413 110.125 18.392C111.192 16.024 112.547 14.4773 114.189 13.752C114.765 13.5173 115.341 13.4 115.917 13.4C116.515 13.4 116.984 13.5707 117.325 13.912C117.667 14.2533 117.837 14.6373 117.837 15.064C117.837 15.256 117.731 15.352 117.517 15.352C117.325 15.3307 117.229 15.224 117.229 15.032C117.229 14.84 117.123 14.6693 116.909 14.52C116.717 14.3493 116.429 14.264 116.045 14.264C114.701 14.264 113.485 15.4693 112.397 17.88C111.373 20.12 110.861 22.2427 110.861 24.248C110.861 25.4853 111.128 26.104 111.661 26.104C112.216 26.104 112.877 25.6453 113.645 24.728C114.435 23.7893 115.16 22.7013 115.821 21.464C117.251 18.8613 118.093 17.1867 118.349 16.44C118.605 15.6933 118.883 15.32 119.181 15.32C119.715 15.32 119.981 15.768 119.981 16.664C119.981 16.9413 119.949 17.2613 119.885 17.624C119.181 21.0373 118.797 23.0107 118.733 23.544C118.691 24.0773 118.669 24.4613 118.669 24.696C118.669 25.72 118.915 26.232 119.405 26.232C119.96 26.232 120.739 25.496 121.741 24.024C122.744 22.552 123.608 21.08 124.333 19.608L125.421 17.4H126.285C126.157 17.656 125.987 18.008 125.773 18.456C125.581 18.8827 125.187 19.6613 124.589 20.792C123.992 21.9013 123.416 22.8827 122.861 23.736C122.328 24.5893 121.72 25.368 121.037 26.072C120.376 26.7547 119.8 27.096 119.309 27.096C117.731 27.096 116.941 25.944 116.941 23.64C116.941 22.872 117.027 21.976 117.197 20.952H116.973C114.797 25.0053 112.973 27.032 111.501 27.032ZM124.475 13.016C124.475 12.7813 124.624 12.664 124.923 12.664H126.587C126.694 12.2373 126.832 11.704 127.003 11.064L127.451 9.4C127.579 8.90933 127.686 8.46133 127.771 8.056C127.878 7.65067 128.07 7.448 128.347 7.448C128.71 7.448 128.966 7.72533 129.115 8.28C129.179 8.51467 129.211 8.80267 129.211 9.144C129.211 9.48533 129.147 9.92267 129.019 10.456L128.411 12.664H130.395C130.587 12.664 130.715 12.728 130.779 12.856C130.864 12.984 130.864 13.112 130.779 13.24C130.715 13.3467 130.587 13.4 130.395 13.4H128.219C126.896 18.3707 126.235 21.8907 126.235 23.96C126.235 25.4747 126.576 26.232 127.259 26.232C127.814 26.232 128.592 25.496 129.595 24.024C130.598 22.552 131.462 21.08 132.187 19.608L133.275 17.4H134.139C134.011 17.656 133.84 18.008 133.627 18.456C133.435 18.8827 133.04 19.6613 132.443 20.792C131.846 21.9013 131.27 22.8827 130.715 23.736C130.182 24.5893 129.574 25.368 128.891 26.072C128.23 26.7547 127.611 27.096 127.035 27.096C126.459 27.096 125.958 26.9147 125.531 26.552C125.126 26.168 124.87 25.6347 124.763 24.952C124.635 24.248 124.571 23.5333 124.571 22.808C124.571 21.1227 125.168 17.9867 126.363 13.4H124.923C124.752 13.4 124.635 13.3573 124.571 13.272C124.507 13.1653 124.475 13.08 124.475 13.016ZM136.686 7.832C137.176 7.832 137.422 8.16267 137.422 8.824C137.422 9.48533 137.102 10.0187 136.462 10.424C136.142 10.6373 135.864 10.744 135.63 10.744C135.288 10.744 135.086 10.6373 135.022 10.424L134.99 10.328C135.182 10.328 135.32 10.1253 135.406 9.72C135.491 9.29333 135.619 8.87733 135.79 8.472C135.982 8.04533 136.28 7.832 136.686 7.832ZM134.638 26.232C135.192 26.232 135.971 25.496 136.974 24.024C137.976 22.552 138.84 21.08 139.566 19.608L140.654 17.4H141.518C141.39 17.656 141.219 18.008 141.006 18.456C140.814 18.8827 140.419 19.6613 139.822 20.792C139.224 21.9013 138.648 22.8827 138.094 23.736C137.56 24.5893 136.952 25.368 136.27 26.072C135.608 26.7547 135.032 27.096 134.542 27.096C132.963 27.096 132.174 26.072 132.174 24.024C132.174 22.488 132.611 19.992 133.486 16.536C133.571 16.1733 133.635 15.896 133.678 15.704C133.742 15.512 133.806 15.2667 133.87 14.968C133.934 14.648 133.998 14.36 134.062 14.104C134.168 13.656 134.36 13.432 134.638 13.432C135.022 13.432 135.299 13.7093 135.47 14.264C135.555 14.52 135.598 14.8293 135.598 15.192C135.598 15.5547 135.555 15.9387 135.47 16.344C135.384 16.728 135.246 17.304 135.054 18.072C134.862 18.84 134.712 19.4693 134.606 19.96C134.499 20.4507 134.382 21.048 134.254 21.752C134.019 22.9253 133.902 23.9707 133.902 24.888C133.902 25.784 134.147 26.232 134.638 26.232ZM141.501 27.032C139.816 27.032 138.973 25.7627 138.973 23.224C138.973 21.752 139.357 20.1413 140.125 18.392C141.192 16.024 142.547 14.4773 144.189 13.752C144.765 13.5173 145.341 13.4 145.917 13.4C146.515 13.4 146.984 13.5707 147.325 13.912C147.667 14.2533 147.837 14.6373 147.837 15.064C147.837 15.256 147.731 15.352 147.517 15.352C147.325 15.3307 147.229 15.224 147.229 15.032C147.229 14.84 147.123 14.6693 146.909 14.52C146.717 14.3493 146.429 14.264 146.045 14.264C144.701 14.264 143.485 15.4693 142.397 17.88C141.373 20.12 140.861 22.2427 140.861 24.248C140.861 25.4853 141.128 26.104 141.661 26.104C142.216 26.104 142.877 25.6453 143.645 24.728C144.435 23.7893 145.16 22.7013 145.821 21.464C147.251 18.8613 148.093 17.1867 148.349 16.44C148.605 15.6933 148.883 15.32 149.181 15.32C149.715 15.32 149.981 15.768 149.981 16.664C149.981 16.9413 149.949 17.2613 149.885 17.624C149.181 21.0373 148.797 23.0107 148.733 23.544C148.691 24.0773 148.669 24.4613 148.669 24.696C148.669 25.72 148.915 26.232 149.405 26.232C149.96 26.232 150.739 25.496 151.741 24.024C152.744 22.552 153.608 21.08 154.333 19.608L155.421 17.4H156.285C156.157 17.656 155.987 18.008 155.773 18.456C155.581 18.8827 155.187 19.6613 154.589 20.792C153.992 21.9013 153.416 22.8827 152.861 23.736C152.328 24.5893 151.72 25.368 151.037 26.072C150.376 26.7547 149.8 27.096 149.309 27.096C147.731 27.096 146.941 25.944 146.941 23.64C146.941 22.872 147.027 21.976 147.197 20.952H146.973C144.797 25.0053 142.973 27.032 141.501 27.032ZM154.891 27C154.294 27 153.995 26.5413 153.995 25.624C153.995 25.1333 154.592 21.56 155.787 14.904C155.851 14.456 156.043 14.232 156.363 14.232C156.747 14.232 157.035 14.5093 157.227 15.064C157.334 15.3627 157.387 15.6933 157.387 16.056C157.387 16.3973 157.344 16.7707 157.259 17.176L156.747 19.736H156.939C158.859 15.4267 160.694 13.272 162.443 13.272C163.126 13.272 163.648 13.4853 164.011 13.912C164.374 14.3173 164.555 14.8827 164.555 15.608C164.555 16.3333 164.267 17.9013 163.691 20.312C163.115 22.7227 162.827 24.3973 162.827 25.336C162.827 26.7227 163.083 27.416 163.595 27.416C163.595 27.5653 163.499 27.7147 163.307 27.864C163.115 28.0133 162.891 28.088 162.635 28.088C161.398 28.088 160.779 27.1173 160.779 25.176C160.779 23.9813 161.099 22.1787 161.739 19.768C162.4 17.336 162.731 15.7893 162.731 15.128C162.731 14.4453 162.464 14.104 161.931 14.104C161.163 14.104 160.235 15.1067 159.147 17.112C158.08 19.1173 157.216 21.0373 156.555 22.872C155.915 24.6853 155.542 25.8267 155.435 26.296C155.35 26.7653 155.168 27 154.891 27ZM169.179 22.328C169.179 24.9093 170.096 26.2 171.931 26.2C172.614 26.2 173.328 25.9013 174.075 25.304C174.843 24.6853 175.536 23.9493 176.155 23.096C177.52 21.1333 178.48 19.5333 179.035 18.296L179.451 17.4H180.315C179.952 18.2533 179.419 19.3093 178.715 20.568C178.011 21.8053 177.339 22.8507 176.699 23.704C176.059 24.5573 175.302 25.336 174.427 26.04C173.552 26.7227 172.72 27.064 171.931 27.064C168.774 27.064 167.195 25.2933 167.195 21.752C167.195 20.1093 167.675 18.4667 168.635 16.824C169.958 14.5413 171.59 13.4 173.531 13.4C174.896 13.4 175.579 14.1467 175.579 15.64C175.579 16.7493 175.152 17.9013 174.299 19.096C173.104 20.7173 171.707 21.5387 170.107 21.56C169.872 21.56 169.723 21.4533 169.659 21.24L169.627 21.112C170.736 21.112 171.792 20.3867 172.795 18.936C173.819 17.464 174.331 16.2373 174.331 15.256C174.331 14.5947 174.075 14.264 173.563 14.264C172.432 14.264 171.376 15.256 170.395 17.24C169.584 18.9253 169.179 20.6213 169.179 22.328ZM37.2679 65.168C35.4546 64.6773 34.5479 63.6427 34.5479 62.064C34.5479 61.4453 34.7079 60.976 35.0279 60.656C35.3693 60.3147 35.6573 60.144 35.8919 60.144C36.2759 60.144 36.4999 60.2613 36.5639 60.496L36.5959 60.624C36.0413 60.624 35.6573 60.9333 35.4439 61.552C35.3799 61.7653 35.3479 61.9787 35.3479 62.192C35.3479 62.7467 35.5613 63.2053 35.9879 63.568C36.4359 63.9307 36.9159 64.1867 37.4279 64.336C38.1533 60.0267 38.6226 57.424 38.8359 56.528C39.6466 53.2427 40.7986 51.4293 42.2919 51.088C42.4839 51.0453 42.6759 51.024 42.8679 51.024C43.1879 51.024 43.4013 51.152 43.5079 51.408L43.5399 51.568C42.6439 51.568 41.9506 52.0587 41.4599 53.04C40.9906 54.0213 40.6599 55.1093 40.4679 56.304C40.2973 57.4987 40.1693 58.4373 40.0839 59.12C39.9986 59.8027 39.8919 60.7093 39.7639 61.84C39.6573 62.9493 39.5613 63.856 39.4759 64.56C42.0999 64.4747 44.2653 63.312 45.9719 61.072C47.4013 59.1947 48.1159 57.1573 48.1159 54.96C48.1159 52.4853 47.2413 50.704 45.4919 49.616C44.4679 48.9973 43.2199 48.688 41.7479 48.688C37.6093 48.688 34.4626 50.16 32.3079 53.104C30.8146 55.1093 30.0679 57.3493 30.0679 59.824C30.0679 62.256 30.7079 63.9733 31.9879 64.976C32.5639 65.4453 33.2253 65.68 33.9719 65.68C33.7799 66.1707 33.4493 66.416 32.9799 66.416C31.1879 66.416 29.9186 65.4987 29.1719 63.664C28.7666 62.6827 28.5639 61.6267 28.5639 60.496C28.5639 59.3653 28.7559 58.1707 29.1399 56.912C30.0573 53.9253 31.7746 51.6107 34.2919 49.968C36.4039 48.5813 38.8893 47.888 41.7479 47.888C45.3533 47.888 47.8173 49.0507 49.1399 51.376C49.7586 52.4427 50.0679 53.5307 50.0679 54.64C50.0679 55.7493 49.8866 56.848 49.5239 57.936C48.7133 60.368 47.2413 62.288 45.1079 63.696C43.3799 64.8053 41.4706 65.3707 39.3799 65.392C38.7399 69.9147 37.6839 73.0827 36.2119 74.896C35.6359 75.6213 34.8999 76.208 34.0039 76.656C33.1079 77.104 32.1159 77.328 31.0279 77.328C29.9399 77.328 29.0119 77.136 28.2439 76.752C27.4759 76.368 26.9319 75.8773 26.6119 75.28C26.1213 74.4053 25.8759 73.6053 25.8759 72.88C25.8759 72.1547 25.9826 71.4827 26.1959 70.864C26.4093 70.224 26.7186 69.6053 27.1239 69.008C27.5293 68.3893 28.0626 67.888 28.7239 67.504C29.3853 67.12 30.0999 66.928 30.8679 66.928C31.3159 66.928 31.6039 67.0773 31.7319 67.376L31.8279 67.536C29.9719 67.536 28.5639 68.3253 27.6039 69.904C27.0279 70.8213 26.7399 71.7387 26.7399 72.656C26.7399 73.104 26.8039 73.5413 26.9319 73.968C27.3799 75.632 28.5426 76.464 30.4199 76.464C31.2519 76.464 32.0093 76.2507 32.6919 75.824C33.3746 75.3973 33.9399 74.8533 34.3879 74.192C34.8573 73.552 35.2839 72.6987 35.6679 71.632C36.2439 70.032 36.7773 67.8773 37.2679 65.168ZM53.6193 54.832C54.11 54.832 54.3553 55.1627 54.3553 55.824C54.3553 56.4853 54.0353 57.0187 53.3953 57.424C53.0753 57.6373 52.798 57.744 52.5633 57.744C52.222 57.744 52.0193 57.6373 51.9553 57.424L51.9233 57.328C52.1153 57.328 52.254 57.1253 52.3393 56.72C52.4246 56.2933 52.5526 55.8773 52.7233 55.472C52.9153 55.0453 53.214 54.832 53.6193 54.832ZM51.5713 73.232C52.126 73.232 52.9046 72.496 53.9073 71.024C54.91 69.552 55.774 68.08 56.4993 66.608L57.5873 64.4H58.4513C58.3233 64.656 58.1526 65.008 57.9393 65.456C57.7473 65.8827 57.3526 66.6613 56.7553 67.792C56.158 68.9013 55.582 69.8827 55.0273 70.736C54.494 71.5893 53.886 72.368 53.2033 73.072C52.542 73.7547 51.966 74.096 51.4753 74.096C49.8966 74.096 49.1073 73.072 49.1073 71.024C49.1073 69.488 49.5446 66.992 50.4193 63.536C50.5046 63.1733 50.5686 62.896 50.6113 62.704C50.6753 62.512 50.7393 62.2667 50.8033 61.968C50.8673 61.648 50.9313 61.36 50.9953 61.104C51.102 60.656 51.294 60.432 51.5713 60.432C51.9553 60.432 52.2326 60.7093 52.4033 61.264C52.4886 61.52 52.5313 61.8293 52.5313 62.192C52.5313 62.5547 52.4886 62.9387 52.4033 63.344C52.318 63.728 52.1793 64.304 51.9873 65.072C51.7953 65.84 51.646 66.4693 51.5393 66.96C51.4326 67.4507 51.3153 68.048 51.1873 68.752C50.9526 69.9253 50.8353 70.9707 50.8353 71.888C50.8353 72.784 51.0806 73.232 51.5713 73.232ZM61.4751 56.912H61.5391C61.7311 56.9333 61.8804 57.0187 61.9871 57.168C62.0937 57.3173 62.1471 57.4773 62.1471 57.648C62.1471 57.7973 61.9977 58.128 61.6991 58.64C61.4217 59.152 61.2831 59.568 61.2831 59.888C61.2831 60.1867 61.3257 60.4747 61.4111 60.752C61.4964 61.008 61.7631 61.648 62.2111 62.672C63.1924 64.912 63.6831 66.9173 63.6831 68.688C63.6831 70.4373 63.2031 71.888 62.2431 73.04C61.3044 74.192 60.1737 74.768 58.8511 74.768C57.5497 74.768 56.8991 73.9787 56.8991 72.4C56.8991 70.8 57.4644 69.0933 58.5951 67.28C59.2564 66.2347 59.9711 65.4453 60.7391 64.912C60.9524 64.7627 61.0911 64.7947 61.1551 65.008C61.2404 65.2213 61.1977 65.392 61.0271 65.52C59.7897 66.416 58.8297 67.8347 58.1471 69.776C57.5284 71.5253 57.4644 72.7413 57.9551 73.424C58.1257 73.68 58.3711 73.808 58.6911 73.808C59.6297 73.808 60.3657 73.1787 60.8991 71.92C61.4324 70.6613 61.6991 69.0933 61.6991 67.216C61.6991 65.5947 61.5071 64.0907 61.1231 62.704C60.7391 61.3173 60.5257 60.5173 60.4831 60.304C59.8431 61.52 59.1497 62.8853 58.4031 64.4H57.5391C58.7551 61.9893 59.6937 60.176 60.3551 58.96C60.4404 57.5947 60.8137 56.912 61.4751 56.912ZM71.1193 54.832C71.61 54.832 71.8553 55.1627 71.8553 55.824C71.8553 56.4853 71.5353 57.0187 70.8953 57.424C70.5753 57.6373 70.298 57.744 70.0633 57.744C69.722 57.744 69.5193 57.6373 69.4553 57.424L69.4233 57.328C69.6153 57.328 69.754 57.1253 69.8393 56.72C69.9246 56.2933 70.0526 55.8773 70.2233 55.472C70.4153 55.0453 70.714 54.832 71.1193 54.832ZM69.0713 73.232C69.626 73.232 70.4046 72.496 71.4073 71.024C72.41 69.552 73.274 68.08 73.9993 66.608L75.0873 64.4H75.9513C75.8233 64.656 75.6526 65.008 75.4393 65.456C75.2473 65.8827 74.8526 66.6613 74.2553 67.792C73.658 68.9013 73.082 69.8827 72.5273 70.736C71.994 71.5893 71.386 72.368 70.7033 73.072C70.042 73.7547 69.466 74.096 68.9753 74.096C67.3966 74.096 66.6073 73.072 66.6073 71.024C66.6073 69.488 67.0446 66.992 67.9193 63.536C68.0046 63.1733 68.0686 62.896 68.1113 62.704C68.1753 62.512 68.2393 62.2667 68.3033 61.968C68.3673 61.648 68.4313 61.36 68.4953 61.104C68.602 60.656 68.794 60.432 69.0713 60.432C69.4553 60.432 69.7326 60.7093 69.9033 61.264C69.9886 61.52 70.0313 61.8293 70.0313 62.192C70.0313 62.5547 69.9886 62.9387 69.9033 63.344C69.818 63.728 69.6793 64.304 69.4873 65.072C69.2953 65.84 69.146 66.4693 69.0393 66.96C68.9326 67.4507 68.8153 68.048 68.6873 68.752C68.4526 69.9253 68.3353 70.9707 68.3353 71.888C68.3353 72.784 68.5806 73.232 69.0713 73.232ZM75.8071 69.456C75.8071 71.952 76.6711 73.2 78.3991 73.2C79.0817 73.2 79.7964 72.9013 80.5431 72.304C81.3111 71.6853 82.0044 70.9493 82.6231 70.096C83.9884 68.1333 84.9484 66.5333 85.5031 65.296L85.9191 64.4H86.7831C86.4204 65.2533 85.8871 66.3093 85.1831 67.568C84.4791 68.8053 83.8071 69.8507 83.1671 70.704C82.5271 71.5573 81.7697 72.336 80.8951 73.04C80.0204 73.7227 79.1884 74.064 78.3991 74.064C76.1804 74.064 74.7724 73.0507 74.1751 71.024C73.9831 70.384 73.8871 69.584 73.8871 68.624C73.8871 67.6427 74.1857 66.448 74.7831 65.04C75.6577 62.9493 76.8524 61.5413 78.3671 60.816C78.9644 60.5387 79.5511 60.4 80.1271 60.4C80.7244 60.4 81.1937 60.56 81.5351 60.88C81.9404 61.264 82.1431 61.712 82.1431 62.224C82.1431 62.7147 82.0897 63.1733 81.9831 63.6C81.8764 64.0267 81.6524 64.4107 81.3111 64.752C80.9911 65.072 80.6284 65.232 80.2231 65.232C80.0524 65.232 79.9244 65.1147 79.8391 64.88C80.0097 64.88 80.2337 64.5813 80.5111 63.984C80.8097 63.3653 80.9591 62.7573 80.9591 62.16C80.9591 61.5627 80.7031 61.264 80.1911 61.264C79.0817 61.264 78.0684 62.192 77.1511 64.048C76.2551 65.904 75.8071 67.7067 75.8071 69.456ZM86.6344 69.776C86.6344 72.016 87.2318 73.136 88.4264 73.136C89.2371 73.136 89.9944 72.6347 90.6984 71.632C92.0424 69.7547 92.8638 67.28 93.1624 64.208C92.4158 63.888 91.8931 63.3653 91.5944 62.64C91.4024 62.192 91.3064 61.8187 91.3064 61.52C91.3064 61.2 91.3491 60.9227 91.4344 60.688C91.6264 60.112 91.9784 59.824 92.4904 59.824C93.0024 59.824 93.3864 60.1547 93.6424 60.816C93.9198 61.456 94.0584 62.2773 94.0584 63.28C94.0584 63.344 94.0584 63.4187 94.0584 63.504C94.3144 63.5893 94.6878 63.632 95.1784 63.632C95.6904 63.632 96.1384 63.4293 96.5224 63.024C96.9064 62.6187 97.0984 62.2453 97.0984 61.904C97.0984 61.8187 97.1518 61.7653 97.2584 61.744C97.3651 61.7013 97.4611 61.7013 97.5464 61.744C97.6531 61.7867 97.7064 61.8507 97.7064 61.936C97.7064 62.5547 97.4398 63.1413 96.9064 63.696C96.3944 64.2507 95.7011 64.528 94.8264 64.528C94.6131 64.528 94.3358 64.5067 93.9944 64.464C93.8664 65.9147 93.5571 67.3547 93.0664 68.784C92.5971 70.192 91.9358 71.4187 91.0824 72.464C90.2291 73.488 89.3118 74 88.3304 74C86.4744 74 85.3331 73.008 84.9064 71.024C84.7998 70.448 84.7464 69.8613 84.7464 69.264C84.7464 67.92 85.0558 66.48 85.6744 64.944C86.4851 62.9387 87.4878 61.6907 88.6824 61.2C89.3011 60.9867 89.7278 60.9547 89.9624 61.104C90.1971 61.2533 90.3464 61.424 90.4104 61.616C89.4291 61.616 88.5544 62.5333 87.7864 64.368C87.0184 66.2027 86.6344 68.0053 86.6344 69.776ZM105.485 53.936C106.253 51.9307 106.637 50.5653 106.637 49.84C106.637 49.1147 106.455 48.7307 106.093 48.688C105.09 48.688 104.045 50.2987 102.957 53.52C101.89 56.72 101.047 60.048 100.429 63.504C99.8312 66.9387 99.5326 69.3707 99.5326 70.8C99.5326 73.2107 100.13 74.416 101.325 74.416C101.325 74.5653 101.229 74.7147 101.037 74.864C100.845 75.0133 100.621 75.088 100.365 75.088C98.6152 75.088 97.7406 73.52 97.7406 70.384C97.7406 69.232 97.9539 67.472 98.3806 65.104C98.8072 62.7147 99.3619 60.2187 100.045 57.616C100.727 55.0133 101.613 52.752 102.701 50.832C103.789 48.8907 104.898 47.92 106.029 47.92C106.925 47.92 107.373 48.4853 107.373 49.616C107.373 50.4693 107.106 51.664 106.573 53.2C105.549 56.1867 104.077 59.1733 102.157 62.16C101.645 62.9493 101.186 63.5893 100.781 64.08C100.674 64.208 100.621 64.1653 100.621 63.952C100.599 63.5467 100.695 63.1947 100.909 62.896C102.658 60.272 104.183 57.2853 105.485 53.936ZM106.791 69.776C106.791 72.016 107.388 73.136 108.583 73.136C109.393 73.136 110.151 72.6347 110.855 71.632C112.199 69.7547 113.02 67.28 113.319 64.208C112.572 63.888 112.049 63.3653 111.751 62.64C111.559 62.192 111.463 61.8187 111.463 61.52C111.463 61.2 111.505 60.9227 111.591 60.688C111.783 60.112 112.135 59.824 112.647 59.824C113.159 59.824 113.543 60.1547 113.799 60.816C114.076 61.456 114.215 62.2773 114.215 63.28C114.215 63.344 114.215 63.4187 114.215 63.504C114.471 63.5893 114.844 63.632 115.335 63.632C115.847 63.632 116.295 63.4293 116.679 63.024C117.063 62.6187 117.255 62.2453 117.255 61.904C117.255 61.8187 117.308 61.7653 117.415 61.744C117.521 61.7013 117.617 61.7013 117.703 61.744C117.809 61.7867 117.863 61.8507 117.863 61.936C117.863 62.5547 117.596 63.1413 117.063 63.696C116.551 64.2507 115.857 64.528 114.983 64.528C114.769 64.528 114.492 64.5067 114.151 64.464C114.023 65.9147 113.713 67.3547 113.223 68.784C112.753 70.192 112.092 71.4187 111.239 72.464C110.385 73.488 109.468 74 108.487 74C106.631 74 105.489 73.008 105.063 71.024C104.956 70.448 104.903 69.8613 104.903 69.264C104.903 67.92 105.212 66.48 105.831 64.944C106.641 62.9387 107.644 61.6907 108.839 61.2C109.457 60.9867 109.884 60.9547 110.119 61.104C110.353 61.2533 110.503 61.424 110.567 61.616C109.585 61.616 108.711 62.5333 107.943 64.368C107.175 66.2027 106.791 68.0053 106.791 69.776ZM127.209 62.32C127.742 62.32 128.009 62.768 128.009 63.664C128.009 64.304 127.657 66.16 126.953 69.232C126.249 72.2827 125.619 74.8107 125.065 76.816C124.51 78.8213 123.987 80.304 123.497 81.264C123.006 82.2453 122.409 83.2267 121.705 84.208C121.022 85.1893 120.265 85.8613 119.433 86.224C118.601 86.5867 117.641 86.768 116.553 86.768C114.526 86.768 113.513 85.7333 113.513 83.664C113.513 82.448 113.971 81.136 114.889 79.728C116.211 77.6587 117.982 76.2933 120.201 75.632C120.99 75.3973 121.811 75.28 122.665 75.28C122.814 75.28 122.889 75.4293 122.889 75.728C122.889 76.0267 122.814 76.176 122.665 76.176C120.147 76.176 118.035 77.168 116.329 79.152C115.07 80.6453 114.441 82.0853 114.441 83.472C114.441 84.8587 114.974 85.6587 116.041 85.872L116.553 85.904C118.302 85.904 119.689 85.1787 120.713 83.728C121.758 82.256 122.579 80.4 123.177 78.16C123.774 75.8987 124.542 72.3573 125.481 67.536H125.225C122.921 71.8667 121.022 74.032 119.529 74.032C117.843 74.032 117.001 72.7627 117.001 70.224C117.001 68.752 117.385 67.1413 118.153 65.392C119.219 63.024 120.574 61.4773 122.217 60.752C122.793 60.5173 123.369 60.4 123.945 60.4C124.542 60.4 125.011 60.5707 125.353 60.912C125.694 61.2533 125.865 61.6373 125.865 62.064C125.865 62.256 125.758 62.352 125.545 62.352C125.353 62.3307 125.257 62.224 125.257 62.032C125.257 61.84 125.15 61.6693 124.937 61.52C124.745 61.3493 124.457 61.264 124.073 61.264C122.729 61.264 121.513 62.4693 120.425 64.88C119.401 67.12 118.889 69.2427 118.889 71.248C118.889 72.4853 119.155 73.104 119.689 73.104C120.393 73.104 121.31 72.272 122.441 70.608C124.147 68.0907 125.481 65.6267 126.441 63.216C126.697 62.6187 126.953 62.32 127.209 62.32ZM134.479 54.832C134.969 54.832 135.215 55.1627 135.215 55.824C135.215 56.4853 134.895 57.0187 134.255 57.424C133.935 57.6373 133.657 57.744 133.423 57.744C133.081 57.744 132.879 57.6373 132.815 57.424L132.783 57.328C132.975 57.328 133.113 57.1253 133.199 56.72C133.284 56.2933 133.412 55.8773 133.583 55.472C133.775 55.0453 134.073 54.832 134.479 54.832ZM132.431 73.232C132.985 73.232 133.764 72.496 134.767 71.024C135.769 69.552 136.633 68.08 137.359 66.608L138.447 64.4H139.311C139.183 64.656 139.012 65.008 138.799 65.456C138.607 65.8827 138.212 66.6613 137.615 67.792C137.017 68.9013 136.441 69.8827 135.887 70.736C135.353 71.5893 134.745 72.368 134.063 73.072C133.401 73.7547 132.825 74.096 132.335 74.096C130.756 74.096 129.967 73.072 129.967 71.024C129.967 69.488 130.404 66.992 131.279 63.536C131.364 63.1733 131.428 62.896 131.471 62.704C131.535 62.512 131.599 62.2667 131.663 61.968C131.727 61.648 131.791 61.36 131.855 61.104C131.961 60.656 132.153 60.432 132.431 60.432C132.815 60.432 133.092 60.7093 133.263 61.264C133.348 61.52 133.391 61.8293 133.391 62.192C133.391 62.5547 133.348 62.9387 133.263 63.344C133.177 63.728 133.039 64.304 132.847 65.072C132.655 65.84 132.505 66.4693 132.399 66.96C132.292 67.4507 132.175 68.048 132.047 68.752C131.812 69.9253 131.695 70.9707 131.695 71.888C131.695 72.784 131.94 73.232 132.431 73.232ZM139.294 74.032C137.609 74.032 136.766 72.7627 136.766 70.224C136.766 68.752 137.15 67.1413 137.918 65.392C138.985 63.024 140.34 61.4773 141.982 60.752C142.558 60.5173 143.134 60.4 143.71 60.4C144.308 60.4 144.777 60.5707 145.118 60.912C145.46 61.2533 145.63 61.6373 145.63 62.064C145.63 62.256 145.524 62.352 145.31 62.352C145.118 62.3307 145.022 62.224 145.022 62.032C145.022 61.84 144.916 61.6693 144.702 61.52C144.51 61.3493 144.222 61.264 143.838 61.264C142.494 61.264 141.278 62.4693 140.19 64.88C139.166 67.12 138.654 69.2427 138.654 71.248C138.654 72.4853 138.921 73.104 139.454 73.104C140.009 73.104 140.67 72.6453 141.438 71.728C142.228 70.7893 142.953 69.7013 143.614 68.464C145.044 65.8613 145.886 64.1867 146.142 63.44C146.398 62.6933 146.676 62.32 146.974 62.32C147.508 62.32 147.774 62.768 147.774 63.664C147.774 63.9413 147.742 64.2613 147.678 64.624C146.974 68.0373 146.59 70.0107 146.526 70.544C146.484 71.0773 146.462 71.4613 146.462 71.696C146.462 72.72 146.708 73.232 147.198 73.232C147.753 73.232 148.532 72.496 149.534 71.024C150.537 69.552 151.401 68.08 152.126 66.608L153.214 64.4H154.078C153.95 64.656 153.78 65.008 153.566 65.456C153.374 65.8827 152.98 66.6613 152.382 67.792C151.785 68.9013 151.209 69.8827 150.654 70.736C150.121 71.5893 149.513 72.368 148.83 73.072C148.169 73.7547 147.593 74.096 147.102 74.096C145.524 74.096 144.734 72.944 144.734 70.64C144.734 69.872 144.82 68.976 144.99 67.952H144.766C142.59 72.0053 140.766 74.032 139.294 74.032Z" fill="#042A2B"/>
</svg>
