<svg width="37" height="37" viewBox="0 0 37 37" fill="none" xmlns="http://www.w3.org/2000/svg">
<path d="M18.5 18.5001C15.9792 18.5001 13.8212 17.6025 12.026 15.8074C10.2309 14.0122 9.33334 11.8542 9.33334 9.33341C9.33334 6.81258 10.2309 4.65459 12.026 2.85946C13.8212 1.06432 15.9792 0.166748 18.5 0.166748C21.0208 0.166748 23.1788 1.06432 24.974 2.85946C26.7691 4.65459 27.6667 6.81258 27.6667 9.33341C27.6667 11.8542 26.7691 14.0122 24.974 15.8074C23.1788 17.6025 21.0208 18.5001 18.5 18.5001ZM0.166672 36.8334V30.4167C0.166672 29.1181 0.500873 27.9246 1.16928 26.836C1.83768 25.7475 2.7257 24.9167 3.83334 24.3438C6.20139 23.1598 8.60764 22.2718 11.0521 21.6798C13.4965 21.0878 15.9792 20.7917 18.5 20.7917C21.0208 20.7917 23.5035 21.0878 25.9479 21.6798C28.3924 22.2718 30.7986 23.1598 33.1667 24.3438C34.2743 24.9167 35.1623 25.7475 35.8307 26.836C36.4991 27.9246 36.8333 29.1181 36.8333 30.4167V36.8334H0.166672ZM4.75001 32.2501H32.25V30.4167C32.25 29.9966 32.145 29.6147 31.9349 29.2709C31.7248 28.9272 31.4479 28.6598 31.1042 28.4688C29.0417 27.4376 26.9601 26.6641 24.8594 26.1485C22.7587 25.6329 20.6389 25.3751 18.5 25.3751C16.3611 25.3751 14.2413 25.6329 12.1406 26.1485C10.0399 26.6641 7.95834 27.4376 5.89584 28.4688C5.55209 28.6598 5.27518 28.9272 5.06511 29.2709C4.85504 29.6147 4.75001 29.9966 4.75001 30.4167V32.2501ZM18.5 13.9167C19.7604 13.9167 20.8394 13.468 21.737 12.5704C22.6346 11.6728 23.0833 10.5938 23.0833 9.33341C23.0833 8.073 22.6346 6.994 21.737 6.09644C20.8394 5.19887 19.7604 4.75008 18.5 4.75008C17.2396 4.75008 16.1606 5.19887 15.263 6.09644C14.3655 6.994 13.9167 8.073 13.9167 9.33341C13.9167 10.5938 14.3655 11.6728 15.263 12.5704C16.1606 13.468 17.2396 13.9167 18.5 13.9167Z" fill="black"/>
</svg>
